<svg width="19" height="24" viewBox="0 0 19 24" fill="none" xmlns="http://www.w3.org/2000/svg">
<path d="M4.11 13.7C3.26 13.7 2.56 13.635 2.01 13.505C1.47 13.375 1.07 13.18 0.81 12.92C0.55 12.66 0.42 12.34 0.42 11.96C0.42 11.5 0.6 11.125 0.96 10.835C1.33 10.535 1.875 10.35 2.595 10.28V9.98C2.055 9.99 1.645 9.935 1.365 9.815C1.085 9.685 0.945 9.48 0.945 9.2C0.945 8.93 1.08 8.69 1.35 8.48C1.63 8.27 2.09 8.095 2.73 7.955V7.655C2.12 7.625 1.645 7.435 1.305 7.085C0.965 6.725 0.795 6.26 0.795 5.69C0.795 5.18 0.935 4.73 1.215 4.34C1.495 3.95 1.905 3.645 2.445 3.425C2.995 3.195 3.66 3.08 4.44 3.08H8.325V4.58L5.865 4.22V4.55C6.485 4.65 6.94 4.825 7.23 5.075C7.53 5.325 7.68 5.665 7.68 6.095C7.68 6.505 7.55 6.87 7.29 7.19C7.03 7.5 6.65 7.745 6.15 7.925C5.66 8.095 5.065 8.18 4.365 8.18C4.235 8.18 4.095 8.175 3.945 8.165C3.795 8.155 3.56 8.13 3.24 8.09C3.03 8.24 2.86 8.375 2.73 8.495C2.6 8.605 2.535 8.71 2.535 8.81C2.535 8.89 2.585 8.96 2.685 9.02C2.785 9.07 2.915 9.105 3.075 9.125C3.235 9.145 3.39 9.155 3.54 9.155H5.625C5.825 9.155 6.08 9.17 6.39 9.2C6.71 9.23 7.025 9.31 7.335 9.44C7.655 9.57 7.92 9.775 8.13 10.055C8.35 10.335 8.46 10.73 8.46 11.24C8.46 11.81 8.295 12.275 7.965 12.635C7.645 13.005 7.16 13.275 6.51 13.445C5.87 13.615 5.07 13.7 4.11 13.7ZM4.275 12.17C4.895 12.17 5.39 12.135 5.76 12.065C6.13 11.995 6.395 11.88 6.555 11.72C6.715 11.57 6.795 11.375 6.795 11.135C6.795 10.915 6.745 10.745 6.645 10.625C6.545 10.495 6.415 10.405 6.255 10.355C6.105 10.305 5.95 10.275 5.79 10.265C5.63 10.255 5.495 10.25 5.385 10.25H3.54C3.06 10.32 2.72 10.455 2.52 10.655C2.33 10.855 2.235 11.075 2.235 11.315C2.235 11.555 2.315 11.735 2.475 11.855C2.635 11.985 2.865 12.07 3.165 12.11C3.475 12.15 3.845 12.17 4.275 12.17ZM4.32 7.145C4.84 7.145 5.235 7.025 5.505 6.785C5.775 6.535 5.91 6.21 5.91 5.81C5.91 5.38 5.77 5.03 5.49 4.76C5.22 4.48 4.825 4.34 4.305 4.34C3.785 4.34 3.38 4.475 3.09 4.745C2.81 5.015 2.67 5.36 2.67 5.78C2.67 6.05 2.73 6.29 2.85 6.5C2.98 6.7 3.165 6.86 3.405 6.98C3.655 7.09 3.96 7.145 4.32 7.145Z" fill="white"/>
<path d="M10.065 11V6.215V3.155H11.64L11.595 5.555H11.865C12.005 4.965 12.19 4.48 12.42 4.1C12.66 3.72 12.965 3.435 13.335 3.245C13.705 3.055 14.135 2.96 14.625 2.96C15.515 2.96 16.19 3.275 16.65 3.905C17.12 4.535 17.355 5.51 17.355 6.83V11H15.45V7.025C15.45 6.175 15.32 5.555 15.06 5.165C14.81 4.765 14.435 4.565 13.935 4.565C13.515 4.565 13.16 4.7 12.87 4.97C12.58 5.23 12.355 5.58 12.195 6.02C12.045 6.45 11.965 6.925 11.955 7.445V11H10.065Z" fill="white"/>
<path d="M1.99 23V19.19V15.125H3.775L3.79 17.81H4.075C4.155 17.14 4.29 16.595 4.48 16.175C4.68 15.755 4.955 15.445 5.305 15.245C5.655 15.045 6.09 14.945 6.61 14.945C6.7 14.945 6.795 14.95 6.895 14.96C7.005 14.96 7.13 14.975 7.27 15.005L7.18 17.3C7.03 17.23 6.865 17.18 6.685 17.15C6.505 17.12 6.345 17.105 6.205 17.105C5.815 17.105 5.48 17.195 5.2 17.375C4.92 17.555 4.69 17.815 4.51 18.155C4.34 18.485 4.225 18.89 4.165 19.37V23H1.99Z" fill="white"/>
<path d="M13.875 23.225C13.055 23.225 12.335 23.125 11.715 22.925C11.095 22.725 10.615 22.425 10.275 22.025C9.935 21.615 9.765 21.105 9.765 20.495C9.765 20.025 9.865 19.62 10.065 19.28C10.265 18.94 10.535 18.67 10.875 18.47C11.225 18.26 11.625 18.125 12.075 18.065V17.945L13.875 17.645L15.69 17.945V18.065C16.13 18.105 16.52 18.23 16.86 18.44C17.21 18.64 17.485 18.915 17.685 19.265C17.895 19.605 18 20.015 18 20.495C18 21.105 17.825 21.615 17.475 22.025C17.135 22.425 16.655 22.725 16.035 22.925C15.425 23.125 14.705 23.225 13.875 23.225ZM13.89 21.62C14.12 21.62 14.36 21.6 14.61 21.56C14.87 21.51 15.11 21.435 15.33 21.335C15.55 21.225 15.73 21.08 15.87 20.9C16.01 20.72 16.08 20.495 16.08 20.225C16.08 19.895 15.975 19.62 15.765 19.4C15.565 19.18 15.295 19.015 14.955 18.905C14.625 18.795 14.265 18.74 13.875 18.74C13.485 18.74 13.125 18.795 12.795 18.905C12.465 19.005 12.2 19.165 12 19.385C11.8 19.595 11.7 19.87 11.7 20.21C11.7 20.47 11.765 20.69 11.895 20.87C12.035 21.05 12.215 21.2 12.435 21.32C12.655 21.43 12.89 21.51 13.14 21.56C13.4 21.6 13.65 21.62 13.89 21.62ZM13.875 17.285C14.185 17.285 14.475 17.235 14.745 17.135C15.025 17.035 15.25 16.88 15.42 16.67C15.6 16.46 15.69 16.19 15.69 15.86C15.69 15.6 15.63 15.38 15.51 15.2C15.4 15.02 15.25 14.875 15.06 14.765C14.88 14.655 14.68 14.58 14.46 14.54C14.25 14.49 14.045 14.465 13.845 14.465C13.565 14.465 13.285 14.51 13.005 14.6C12.735 14.68 12.51 14.82 12.33 15.02C12.15 15.22 12.06 15.49 12.06 15.83C12.06 16.16 12.14 16.435 12.3 16.655C12.47 16.875 12.695 17.035 12.975 17.135C13.255 17.235 13.555 17.285 13.875 17.285ZM13.875 18.47L12.075 18.095V17.885C11.655 17.805 11.295 17.67 10.995 17.48C10.705 17.29 10.48 17.04 10.32 16.73C10.17 16.42 10.095 16.055 10.095 15.635C10.095 15.015 10.255 14.5 10.575 14.09C10.905 13.68 11.35 13.375 11.91 13.175C12.48 12.965 13.135 12.86 13.875 12.86C14.645 12.86 15.31 12.97 15.87 13.19C16.43 13.4 16.86 13.71 17.16 14.12C17.47 14.53 17.625 15.04 17.625 15.65C17.625 16.24 17.465 16.73 17.145 17.12C16.835 17.5 16.35 17.755 15.69 17.885V18.08L13.875 18.47Z" fill="white"/>
</svg>
