<svg width="11" height="18" viewBox="0 0 11 18" fill="none" xmlns="http://www.w3.org/2000/svg">
<path id="Vector" d="M1.03468 9.56664L9.03468 17.5666C9.10901 17.641 9.19725 17.6999 9.29436 17.7402C9.39148 17.7804 9.49556 17.8011 9.60068 17.8011C9.70579 17.8011 9.80988 17.7804 9.907 17.7402C10.0041 17.6999 10.0924 17.641 10.1667 17.5666C10.241 17.4923 10.3 17.4041 10.3402 17.307C10.3804 17.2098 10.4011 17.1058 10.4011 17.0006C10.4011 16.8955 10.3804 16.7914 10.3402 16.6943C10.3 16.5972 10.241 16.509 10.1667 16.4346L2.73168 9.00064L10.1667 1.56664C10.3168 1.41653 10.4011 1.21293 10.4011 1.00064C10.4011 0.788349 10.3168 0.584753 10.1667 0.43464C10.0166 0.284528 9.81297 0.200195 9.60068 0.200195C9.38839 0.200195 9.18479 0.284528 9.03468 0.43464L1.03468 8.43464C0.960297 8.50894 0.901289 8.59717 0.86103 8.69429C0.82077 8.79141 0.80005 8.89551 0.80005 9.00064C0.80005 9.10577 0.82077 9.20987 0.86103 9.30699C0.901289 9.40411 0.960297 9.49234 1.03468 9.56664Z" fill="white"/>
</svg>
