<svg width="40" height="40" viewBox="0 0 40 40" fill="none" xmlns="http://www.w3.org/2000/svg">
<g id="copy">
<path id="Vector" d="M15 17.667C15 16.9597 15.281 16.2813 15.7811 15.7811C16.2813 15.281 16.9597 15 17.667 15H26.333C26.6832 15 27.03 15.069 27.3536 15.203C27.6772 15.337 27.9712 15.5335 28.2189 15.7811C28.4665 16.0288 28.663 16.3228 28.797 16.6464C28.931 16.97 29 17.3168 29 17.667V26.333C29 26.6832 28.931 27.03 28.797 27.3536C28.663 27.6772 28.4665 27.9712 28.2189 28.2189C27.9712 28.4665 27.6772 28.663 27.3536 28.797C27.03 28.931 26.6832 29 26.333 29H17.667C17.3168 29 16.97 28.931 16.6464 28.797C16.3228 28.663 16.0288 28.4665 15.7811 28.2189C15.5335 27.9712 15.337 27.6772 15.203 27.3536C15.069 27.03 15 26.6832 15 26.333V17.667Z" stroke="#C9C6C5" stroke-width="2" stroke-linecap="round" stroke-linejoin="round"/>
<path id="Vector_2" d="M12.012 24.737C11.7053 24.5622 11.4503 24.3095 11.2726 24.0045C11.0949 23.6995 11.0009 23.353 11 23V13C11 11.9 11.9 11 13 11H23C23.75 11 24.158 11.385 24.5 12" stroke="#C9C6C5" stroke-width="2" stroke-linecap="round" stroke-linejoin="round"/>
</g>
</svg>
