<svg width="23" height="22" viewBox="0 0 23 22" fill="none" xmlns="http://www.w3.org/2000/svg">
<g id="trailing">
<path id="Vector" d="M11.5 5.4771C14.9741 5.4771 18.0725 7.4296 19.585 10.5188C19.0441 11.6371 18.2833 12.5996 17.3758 13.3788L18.6683 14.6713C19.9425 13.5438 20.9508 12.1321 21.5833 10.5188C19.9975 6.4946 16.0833 3.64376 11.5 3.64376C10.3358 3.64376 9.21746 3.8271 8.16329 4.16626L9.67579 5.67876C10.2716 5.5596 10.8766 5.4771 11.5 5.4771ZM10.5191 6.5221L12.4166 8.4196C12.9391 8.64876 13.3608 9.07043 13.59 9.59293L15.4875 11.4904C15.5608 11.1788 15.6158 10.8488 15.6158 10.5096C15.625 8.23626 13.7733 6.39376 11.5 6.39376C11.1608 6.39376 10.84 6.4396 10.5191 6.5221ZM2.34246 3.5246L4.79913 5.98126C3.30496 7.1546 2.12246 8.71293 1.41663 10.5188C3.00246 14.5429 6.91663 17.3938 11.5 17.3938C12.8933 17.3938 14.2316 17.1279 15.46 16.6421L18.595 19.7771L19.8875 18.4846L3.63496 2.22293L2.34246 3.5246ZM9.21746 10.3996L11.61 12.7921C11.5733 12.8013 11.5366 12.8104 11.5 12.8104C10.235 12.8104 9.20829 11.7838 9.20829 10.5188C9.20829 10.4729 9.21746 10.4454 9.21746 10.3996ZM6.10079 7.28293L7.70496 8.8871C7.49413 9.39126 7.37496 9.94126 7.37496 10.5188C7.37496 12.7921 9.22663 14.6438 11.5 14.6438C12.0775 14.6438 12.6275 14.5246 13.1225 14.3138L14.0208 15.2121C13.2141 15.4321 12.3708 15.5604 11.5 15.5604C8.02579 15.5604 4.92746 13.6079 3.41496 10.5188C4.05663 9.20793 4.99163 8.12626 6.10079 7.28293Z" fill="#F4F0EF"/>
</g>
</svg>
