<svg width="22" height="14" viewBox="0 0 22 14" fill="none" xmlns="http://www.w3.org/2000/svg">
<path id="Vector" d="M11 1.95833C14.4741 1.95833 17.5725 3.91083 19.085 7C17.5725 10.0892 14.4833 12.0417 11 12.0417C7.51663 12.0417 4.42746 10.0892 2.91496 7C4.42746 3.91083 7.52579 1.95833 11 1.95833ZM11 0.125C6.41663 0.125 2.50246 2.97583 0.916626 7C2.50246 11.0242 6.41663 13.875 11 13.875C15.5833 13.875 19.4975 11.0242 21.0833 7C19.4975 2.97583 15.5833 0.125 11 0.125ZM11 4.70833C12.265 4.70833 13.2916 5.735 13.2916 7C13.2916 8.265 12.265 9.29167 11 9.29167C9.73496 9.29167 8.70829 8.265 8.70829 7C8.70829 5.735 9.73496 4.70833 11 4.70833ZM11 2.875C8.72663 2.875 6.87496 4.72667 6.87496 7C6.87496 9.27333 8.72663 11.125 11 11.125C13.2733 11.125 15.125 9.27333 15.125 7C15.125 4.72667 13.2733 2.875 11 2.875Z" fill="#F4F0EF"/>
</svg>
